<svg width="372" height="273" viewBox="0 0 372 273" fill="none" xmlns="http://www.w3.org/2000/svg">
<ellipse cx="322" cy="48.6111" rx="50" ry="48.6111" fill="#006CE2"/>
<path d="M214 106.29L61 199.623" stroke="black"/>
<path d="M57 26.5H317C327.217 26.5 335.5 34.7827 335.5 45V221.773C335.5 231.99 327.217 240.273 317 240.273H57C46.7827 240.273 38.5 231.99 38.5 221.773V45C38.5 34.7827 46.7827 26.5 57 26.5Z" fill="white" stroke="#113466" stroke-width="3"/>
<rect x="56.5005" y="101.769" width="162" height="102.376" rx="6.5" stroke="#113466" stroke-width="3"/>
<path d="M87.2105 137.81V156.416C87.2105 158.628 87.7845 160.294 88.9325 161.414C90.1085 162.534 91.7325 163.094 93.8045 163.094C95.9045 163.094 97.5285 162.534 98.6765 161.414C99.8525 160.294 100.44 158.628 100.44 156.416V137.81H105.228V156.332C105.228 158.712 104.71 160.728 103.674 162.38C102.638 164.032 101.252 165.264 99.5165 166.076C97.7805 166.888 95.8625 167.294 93.7625 167.294C91.6625 167.294 89.7445 166.888 88.0085 166.076C86.3005 165.264 84.9425 164.032 83.9345 162.38C82.9265 160.728 82.4225 158.712 82.4225 156.332V137.81H87.2105ZM116.251 137.81V167H111.463V137.81H116.251ZM138.077 127.352L126.653 174.35H121.949L133.331 127.352H138.077ZM148.857 137.81V156.416C148.857 158.628 149.431 160.294 150.579 161.414C151.755 162.534 153.379 163.094 155.451 163.094C157.551 163.094 159.175 162.534 160.323 161.414C161.499 160.294 162.087 158.628 162.087 156.416V137.81H166.875V156.332C166.875 158.712 166.357 160.728 165.321 162.38C164.285 164.032 162.899 165.264 161.163 166.076C159.427 166.888 157.509 167.294 155.409 167.294C153.309 167.294 151.391 166.888 149.655 166.076C147.947 165.264 146.589 164.032 145.581 162.38C144.573 160.728 144.069 158.712 144.069 156.332V137.81H148.857ZM186.507 152.426L195.579 167H190.203L183.609 156.416L177.435 167H172.101L181.173 152.426L172.059 137.81H177.435L184.071 148.478L190.287 137.81H195.621L186.507 152.426Z" fill="#113466"/>
<circle cx="34" cy="227" r="29.5" fill="#006CE2" stroke="#113466"/>
<g filter="url(#filter0_d_1337_192)">
<mask id="mask0_1337_192" style="mask-type:alpha" maskUnits="userSpaceOnUse" x="4" y="197" width="60" height="60">
<circle cx="34" cy="227" r="30" fill="#D9D9D9"/>
</mask>
<g mask="url(#mask0_1337_192)">
<path d="M12.5713 245.4C12.5713 239.877 17.0484 235.4 22.5713 235.4H45.4284C50.9513 235.4 55.4284 239.877 55.4284 245.4V261.114H12.5713V245.4Z" fill="#FDFDFD"/>
<circle cx="33.9992" cy="220.828" r="12.8571" fill="#FDFDFD"/>
</g>
</g>
<path d="M37 45C37 33.9543 45.9543 25 57 25H127V51.1181C127 54.9841 123.866 58.1181 120 58.1181H37V45Z" fill="#0055B2"/>
<path d="M57 26.5H185.5V72.1932C185.5 75.2308 183.038 77.6932 180 77.6932H38.5V45C38.5 34.7827 46.7827 26.5 57 26.5Z" stroke="#113466" stroke-width="3"/>
<rect x="296.368" y="186.698" width="36.1175" height="136.362" rx="3.75" transform="rotate(180 296.368 186.698)" fill="#0055B2" stroke="#113466" stroke-width="2.5"/>
<rect x="296.368" y="189.282" width="36.1175" height="121.518" transform="rotate(180 296.368 189.282)" fill="white" stroke="#113466" stroke-width="2.5"/>
<rect x="290.383" y="153.922" width="4.38111" height="55.3634" rx="2" transform="rotate(180 290.383 153.922)" fill="#0055B2"/>
<rect x="279.697" y="142.723" width="4.38111" height="29.3095" rx="2" transform="rotate(180 279.697 142.723)" fill="#0055B2"/>
<rect x="270.357" y="155.75" width="4.38111" height="55.3634" rx="2" transform="rotate(180 270.357 155.75)" fill="#0055B2"/>
<path d="M295.257 191.782L277.679 217.655L261.273 191.782L295.257 191.782Z" fill="white" fill-opacity="0.7" stroke="#113466" stroke-width="2.5"/>
<path d="M283.68 209.118L278.1 215.837L272.893 209.118L283.68 209.118Z" fill="#113466" stroke="#113466"/>
<defs>
<filter id="filter0_d_1337_192" x="0.571289" y="199.971" width="66.8569" height="73.0288" filterUnits="userSpaceOnUse" color-interpolation-filters="sRGB">
<feFlood flood-opacity="0" result="BackgroundImageFix"/>
<feColorMatrix in="SourceAlpha" type="matrix" values="0 0 0 0 0 0 0 0 0 0 0 0 0 0 0 0 0 0 127 0" result="hardAlpha"/>
<feOffset dy="4"/>
<feGaussianBlur stdDeviation="6"/>
<feComposite in2="hardAlpha" operator="out"/>
<feColorMatrix type="matrix" values="0 0 0 0 0.0666667 0 0 0 0 0.203922 0 0 0 0 0.4 0 0 0 0.2 0"/>
<feBlend mode="normal" in2="BackgroundImageFix" result="effect1_dropShadow_1337_192"/>
<feBlend mode="normal" in="SourceGraphic" in2="effect1_dropShadow_1337_192" result="shape"/>
</filter>
</defs>
</svg>
